<?xml version="1.0" encoding="UTF-8" standalone="no"?>
<!-- Created with Inkscape (http://www.inkscape.org/) -->

<svg
   width="78.691841mm"
   height="50.120926mm"
   viewBox="0 0 78.691841 50.120926"
   version="1.1"
   id="svg1"
   xml:space="preserve"
   sodipodi:docname="logo.svg"
   inkscape:version="1.4.2 (ebf0e940, 2025-05-08)"
   xmlns:inkscape="http://www.inkscape.org/namespaces/inkscape"
   xmlns:sodipodi="http://sodipodi.sourceforge.net/DTD/sodipodi-0.dtd"
   xmlns="http://www.w3.org/2000/svg"
   xmlns:svg="http://www.w3.org/2000/svg"><sodipodi:namedview
     id="namedview1"
     pagecolor="#ffffff"
     bordercolor="#666666"
     borderopacity="1.0"
     inkscape:showpageshadow="2"
     inkscape:pageopacity="0.0"
     inkscape:pagecheckerboard="0"
     inkscape:deskcolor="#d1d1d1"
     inkscape:document-units="mm"
     inkscape:zoom="1.7568934"
     inkscape:cx="133.18964"
     inkscape:cy="153.11116"
     inkscape:window-width="1840"
     inkscape:window-height="1027"
     inkscape:window-x="0"
     inkscape:window-y="25"
     inkscape:window-maximized="0"
     inkscape:current-layer="g1"><inkscape:page
       x="0"
       y="0"
       width="78.691841"
       height="50.120926"
       id="page1"
       margin="0"
       bleed="0" /><inkscape:page
       x="-5.6539612"
       y="-4.9395943"
       width="89.999954"
       height="60.000095"
       id="page2"
       margin="0"
       bleed="0" /></sodipodi:namedview><defs
     id="defs1"><clipPath
       clipPathUnits="userSpaceOnUse"
       id="clipPath3"><path
         d="M 0,0 H 255.118 V 170.079 H 0 Z"
         transform="translate(-47.348901,-143.9108)"
         id="path3" /></clipPath><clipPath
       clipPathUnits="userSpaceOnUse"
       id="clipPath7"><path
         d="M 0,0 H 255.118 V 170.079 H 0 Z"
         transform="translate(-180.9802,-151.7412)"
         id="path7" /></clipPath></defs><g
     inkscape:label="Livello 1"
     inkscape:groupmode="layer"
     id="layer1"
     transform="translate(-225.65395,-4.9395946)" /><g
     id="g1"
     inkscape:groupmode="layer"
     inkscape:label="1"
     transform="matrix(0.26458333,0,0,0.26458334,-5.6539411,-4.9395946)"><g
       id="g2"><path
         id="path2"
         d="m 0,0 c -3.233,1.563 -6.996,2.345 -11.289,2.345 h -20.033 v -54.137 h 14.389 v 12.958 h 5.644 c 4.293,0 8.056,0.781 11.289,2.345 3.232,1.563 5.749,3.868 7.552,6.916 1.801,3.047 2.703,6.823 2.703,11.329 0,4.503 -0.902,8.28 -2.703,11.328 C 5.749,-3.869 3.232,-1.564 0,0 m -6.241,-23.094 c -1.245,-1.113 -3.088,-1.669 -5.525,-1.669 h -5.167 v 13.117 h 5.167 c 2.437,0 4.28,-0.557 5.525,-1.67 1.245,-1.113 1.868,-2.756 1.868,-4.928 0,-2.121 -0.623,-3.737 -1.868,-4.85"
         style="fill:#642279;fill-opacity:1;fill-rule:nonzero;stroke:none"
         transform="matrix(1.3333333,0,0,-1.3333333,63.131867,34.890933)"
         clip-path="url(#clipPath3)" /></g><g
       id="g3"><path
         id="path4"
         d="m 0,0 c -3.154,1.775 -6.797,2.663 -10.931,2.663 -4.134,0 -7.765,-0.888 -10.891,-2.663 -3.127,-1.776 -5.578,-4.213 -7.353,-7.313 -1.777,-3.101 -2.664,-6.639 -2.664,-10.613 0,-3.975 0.887,-7.513 2.664,-10.613 1.775,-3.1 4.226,-5.539 7.353,-7.314 3.126,-1.775 6.757,-2.662 10.891,-2.662 4.134,0 7.777,0.887 10.931,2.662 3.153,1.775 5.604,4.214 7.353,7.314 1.749,3.1 2.624,6.638 2.624,10.613 0,3.974 -0.875,7.512 -2.624,10.613 C 5.604,-4.213 3.153,-1.776 0,0 m -6.4,-22.617 c -1.219,-1.219 -2.73,-1.828 -4.531,-1.828 -1.802,0 -3.3,0.609 -4.492,1.828 -1.192,1.219 -1.788,2.809 -1.788,4.77 0,1.961 0.596,3.538 1.788,4.73 1.192,1.193 2.69,1.789 4.492,1.789 1.801,0 3.312,-0.596 4.531,-1.789 1.219,-1.192 1.829,-2.769 1.829,-4.73 0,-1.961 -0.61,-3.551 -1.829,-4.77"
         style="fill:#642279;fill-opacity:1;fill-rule:nonzero;stroke:none"
         transform="matrix(1.3333333,0,0,-1.3333333,128.15987,54.076533)" /></g><g
       id="g4"><path
         id="path5"
         d="m 173.746,92.119 h 14.469 v 38.953 h -14.469 z"
         style="fill:#642279;fill-opacity:1;fill-rule:nonzero;stroke:none"
         transform="matrix(1.3333333,0,0,-1.3333333,0,226.772)" /></g><g
       id="g5"><path
         id="path6"
         d="m 0,0 c -2.438,0 -4.4,-0.743 -5.883,-2.226 -1.484,-1.484 -2.225,-3.472 -2.225,-5.962 0,-2.385 0.741,-4.307 2.225,-5.764 1.483,-1.458 3.445,-2.186 5.883,-2.186 2.49,0 4.464,0.728 5.922,2.186 1.457,1.457 2.186,3.379 2.186,5.764 0,2.49 -0.729,4.478 -2.186,5.962 C 4.464,-0.743 2.49,0 0,0"
         style="fill:#642279;fill-opacity:1;fill-rule:nonzero;stroke:none"
         transform="matrix(1.3333333,0,0,-1.3333333,241.30693,24.4504)"
         clip-path="url(#clipPath7)" /></g><g
       id="g7"><path
         id="path8"
         d="m 0,0 c -0.954,1.483 -2.266,2.663 -3.936,3.538 -1.669,0.874 -3.775,1.311 -6.32,1.311 -2.384,0 -4.65,-0.437 -6.796,-1.311 -2.146,-0.875 -4.108,-1.975 -5.883,-3.299 -0.204,-0.153 -0.393,-0.308 -0.59,-0.462 l -1.358,3.959 h -10.573 v -38.953 h 14.389 v 23.492 c 0.564,0.381 1.112,0.734 1.63,1.033 0.875,0.503 1.696,0.874 2.464,1.113 0.768,0.238 1.497,0.357 2.186,0.357 1.059,0 1.815,-0.265 2.266,-0.794 0.45,-0.531 0.676,-1.697 0.676,-3.498 V -35.217 H 2.543 v 24.167 c 0,2.067 -0.186,4.054 -0.556,5.962 C 1.615,-3.18 0.953,-1.484 0,0"
         style="fill:#642279;fill-opacity:1;fill-rule:nonzero;stroke:none"
         transform="matrix(1.3333333,0,0,-1.3333333,315.39653,56.991067)" /></g><g
       id="g8"><path
         id="path9"
         d="m 0,0 c -6.312,0 -11.428,-5.117 -11.428,-11.428 v -46.86 c 0,-3.155 2.558,-5.714 5.714,-5.714 2.797,0 5.12,2.011 5.613,4.665 H -0.1 l 11.069,44.703 -0.005,0.001 c 0.297,1.018 0.464,2.091 0.464,3.205 C 11.428,-5.117 6.311,0 0,0"
         style="fill:#47c1af;fill-opacity:1;fill-rule:nonzero;stroke:none"
         transform="matrix(1.3333333,0,0,-1.3333333,205.586,18.669333)" /></g><g
       id="g9"><path
         id="path10"
         d="m 0,0 c -6.312,0 -11.428,-5.117 -11.428,-11.428 0,-1.114 0.167,-2.187 0.464,-3.205 L -10.97,-14.634 0.1,-59.337 h 0.001 c 0.493,-2.654 2.816,-4.665 5.613,-4.665 3.156,0 5.714,2.559 5.714,5.714 v 46.86 C 11.428,-5.117 6.312,0 0,0"
         style="fill:#47c1af;fill-opacity:1;fill-rule:nonzero;stroke:none"
         transform="matrix(1.3333333,0,0,-1.3333333,162.44853,18.669333)" /></g><g
       id="g10"><path
         id="path11"
         d="m 0,0 c -2.946,-1.154 -7.584,-16.286 -11.188,-25.983 -0.791,-2.127 -2.049,-5.588 -3.55,-9.774 -6.369,-1.024 -11.268,-2.386 -10.996,-4.15 0.359,-2.33 3.467,-3.807 7.835,-4.726 -5.021,-14.191 -5.345,-13.325 -6.578,-18.278 -1.929,-7.755 10.504,-14.547 12.742,-3.979 1.186,5.6 1.245,5.418 6.501,20.964 4.838,-0.16 9.716,-0.067 13.638,0.087 0.307,-3.55 0.543,-13.122 0.672,-14.81 0.521,-6.85 12.183,-7.834 10.505,-0.56 C 17.902,-53.936 17.449,6.837 0,0 m -1.167,-34.148 c 2.921,8.255 5.222,14.227 5.768,14.506 0.815,0.416 1.78,-6.201 2.614,-13.861 -2.334,-0.153 -5.246,-0.366 -8.382,-0.645"
         style="fill:#642279;fill-opacity:1;fill-rule:nonzero;stroke:none"
         transform="matrix(1.3333333,0,0,-1.3333333,55.696267,111.67427)" /></g><g
       id="g11"><path
         id="path12"
         d="m 0,0 c -6.671,-3.365 -12.698,-13.166 -9.219,-19.54 3.48,-6.374 22.967,-7.199 24.488,-1.647 1.309,4.776 -3.904,3.102 -6.896,3.014 -2.993,-0.088 -7.156,0.653 -6.838,6.216 0.184,3.226 2.2,8.166 8.65,8.107 6.449,-0.06 7.689,2.238 6.632,3.853 C 14.777,3.122 5.833,2.942 0,0"
         style="fill:#642279;fill-opacity:1;fill-rule:nonzero;stroke:none"
         transform="matrix(1.3333333,0,0,-1.3333333,102.83173,156.39027)" /></g><g
       id="g12"><path
         id="path13"
         d="m 0,0 c -3.185,-0.486 -3.482,1.179 -3.295,10.069 0.078,3.684 0.277,8.242 0.593,12.531 1.906,0.263 3.569,0.487 4.765,0.631 4.774,0.576 9.081,0.922 9.881,3.932 0.799,3.01 -2.035,3.336 -8.046,3.098 -1.328,-0.053 -3.406,-0.058 -5.854,-0.089 0.361,2.694 0.792,4.793 1.292,5.746 1.56,2.964 3.037,5.49 -2.32,8.711 -3.791,2.117 -5.633,2.673 -7.334,0.46 -1.091,-1.42 -1.511,-8.062 -1.859,-15.31 -6.322,-0.493 -12.111,-1.61 -12.935,-4.232 -0.721,-2.295 -0.746,-5.968 4.724,-5.346 1.914,0.217 4.658,0.584 7.615,0.993 -0.869,-8.877 -2.457,-20.844 -1.647,-24.116 1.015,-4.101 2.949,-4.404 9.118,-3.792 6.168,0.612 19.292,2.334 18.853,6.03 C 13.112,3.013 3.185,0.486 0,0"
         style="fill:#642279;fill-opacity:1;fill-rule:nonzero;stroke:none"
         transform="matrix(1.3333333,0,0,-1.3333333,164.52533,178.6464)" /></g><g
       id="g13"><path
         id="path14"
         d="m 0,0 c -6.206,-3.806 -4.529,-13.249 2.487,-13.302 7.016,-0.052 10.423,4.828 9.41,10.076 C 10.884,2.022 2.558,1.569 0,0"
         style="fill:#642279;fill-opacity:1;fill-rule:nonzero;stroke:none"
         transform="matrix(1.3333333,0,0,-1.3333333,201.43493,115.94733)" /></g><g
       id="g14"><path
         id="path15"
         d="m 0,0 c -3.48,0.869 -6.89,3.171 -8.39,2.051 -1.576,-1.176 -2.121,-13.786 -2.802,-21.632 -0.68,-7.845 -1.424,-11.81 1.434,-12.432 2.859,-0.622 10.931,-2.165 10.567,-0.124 -0.364,2.042 -0.248,10.871 0.136,15.964 0.384,5.093 0.984,8.203 2.578,10.352 C 5.117,-3.672 3.48,-0.869 0,0"
         style="fill:#642279;fill-opacity:1;fill-rule:nonzero;stroke:none"
         transform="matrix(1.3333333,0,0,-1.3333333,210.96587,143.7108)" /></g><g
       id="g15"><path
         id="path16"
         d="m 0,0 c 0,1.989 -1.026,5.88 -4.102,6.092 -3.07,0.211 -6.696,-4.966 -9.076,-8.454 -2.379,-3.488 -8.881,-9.619 -4.848,-16.037 2.051,-2.485 6.59,-6.215 11.811,-5.22 5.22,0.994 11.436,1.615 12.68,5.22 1.243,3.606 1.616,9.449 -0.124,11.438 C 4.601,-4.972 0,-1.989 0,0 m -1.74,-14.669 c -0.823,-2.651 -5.439,-3.242 -7.21,-2.859 -1.771,0.384 -0.53,3.852 0.942,6.775 1.474,2.923 2.662,3.53 3.763,3.492 3.578,-0.122 3.327,-4.758 2.505,-7.408"
         style="fill:#642279;fill-opacity:1;fill-rule:nonzero;stroke:none"
         transform="matrix(1.3333333,0,0,-1.3333333,251.71653,152.45773)" /></g><g
       id="g16"><path
         id="path17"
         d="m 0,0 c -6.541,1.544 -14.849,-4.264 -14.849,-4.264 1.223,2.054 -0.124,3.856 -2.673,5.16 -2.549,1.304 -4.35,3.232 -6.153,0.186 -1.804,-3.046 -6.425,-9.055 -5.968,-19.892 0.287,-5.96 -2.832,-7.666 0.746,-9.481 3.578,-1.816 10.835,-2.396 11.011,0 0.177,2.395 -0.738,8.663 0.426,12.216 1.164,3.553 4.11,6.5 8.161,8.065 2.531,1.136 3.277,1.196 2.904,-1.973 -0.373,-3.17 -0.942,-15.724 0.931,-18.523 1.505,-2.338 6.043,-1.373 6.03,2.61 -0.014,3.983 2.583,15.727 3.356,18.648 C 4.696,-4.327 4.894,-1.155 0,0"
         style="fill:#642279;fill-opacity:1;fill-rule:nonzero;stroke:none"
         transform="matrix(1.3333333,0,0,-1.3333333,312.06907,149.7316)" /></g></g></svg>
